<?xml version="1.0" encoding="UTF-8" standalone="no"?>
<!-- Created with Inkscape (http://www.inkscape.org/) -->

<svg
   xmlns:dc="http://purl.org/dc/elements/1.1/"
   xmlns:cc="http://creativecommons.org/ns#"
   xmlns:rdf="http://www.w3.org/1999/02/22-rdf-syntax-ns#"
   xmlns:svg="http://www.w3.org/2000/svg"
   xmlns="http://www.w3.org/2000/svg"
   xmlns:xlink="http://www.w3.org/1999/xlink"
   xmlns:sodipodi="http://sodipodi.sourceforge.net/DTD/sodipodi-0.dtd"
   xmlns:inkscape="http://www.inkscape.org/namespaces/inkscape"
   width="210mm"
   height="297mm"
   viewBox="0 0 210 297"
   version="1.1"
   id="svg8"
   inkscape:version="0.92.4 (5da689c313, 2019-01-14)"
   sodipodi:docname="drawing.svg">
  <defs
     id="defs2">
    <inkscape:perspective
       sodipodi:type="inkscape:persp3d"
       inkscape:vp_x="0 : 148.5 : 1"
       inkscape:vp_y="0 : 1000 : 0"
       inkscape:vp_z="210 : 148.5 : 1"
       inkscape:persp3d-origin="105 : 99 : 1"
       id="perspective6078" />
    <linearGradient
       inkscape:collect="always"
       id="linearGradient6072">
      <stop
         style="stop-color:#000000;stop-opacity:1;"
         offset="0"
         id="stop6068" />
      <stop
         style="stop-color:#000000;stop-opacity:0;"
         offset="1"
         id="stop6070" />
    </linearGradient>
    <linearGradient
       inkscape:collect="always"
       id="linearGradient6056">
      <stop
         style="stop-color:#00000e;stop-opacity:1;"
         offset="0"
         id="stop6052" />
      <stop
         style="stop-color:#00000e;stop-opacity:0;"
         offset="1"
         id="stop6054" />
    </linearGradient>
    <linearGradient
       inkscape:collect="always"
       id="linearGradient5990">
      <stop
         style="stop-color:#000018;stop-opacity:1;"
         offset="0"
         id="stop5986" />
      <stop
         style="stop-color:#000018;stop-opacity:0;"
         offset="1"
         id="stop5988" />
    </linearGradient>
    <linearGradient
       inkscape:collect="always"
       xlink:href="#linearGradient5990"
       id="linearGradient5992"
       x1="-12.285473"
       y1="190.64389"
       x2="46.045326"
       y2="190.64389"
       gradientUnits="userSpaceOnUse"
       gradientTransform="matrix(0.80001765,0,0,1.1522427,8.8558415,-26.027354)" />
    <radialGradient
       inkscape:collect="always"
       xlink:href="#linearGradient6056"
       id="radialGradient6060"
       cx="129.99379"
       cy="188.15747"
       fx="129.99379"
       fy="188.15747"
       r="19.884785"
       gradientTransform="matrix(1.3149056,0,0,0.25675497,-41.50274,140.22509)"
       gradientUnits="userSpaceOnUse" />
    <linearGradient
       inkscape:collect="always"
       xlink:href="#linearGradient6072"
       id="linearGradient6076"
       x1="61.032143"
       y1="208.93155"
       x2="109.05714"
       y2="208.93155"
       gradientUnits="userSpaceOnUse" />
  </defs>
  <sodipodi:namedview
     id="base"
     pagecolor="#ffffff"
     bordercolor="#666666"
     borderopacity="1.0"
     inkscape:pageopacity="0.0"
     inkscape:pageshadow="2"
     inkscape:zoom="0.7"
     inkscape:cx="0.89515002"
     inkscape:cy="392.58794"
     inkscape:document-units="mm"
     inkscape:current-layer="layer1"
     showgrid="false"
     showguides="false"
     inkscape:window-width="1280"
     inkscape:window-height="705"
     inkscape:window-x="-8"
     inkscape:window-y="-8"
     inkscape:window-maximized="1" />
  <metadata
     id="metadata5">
    <rdf:RDF>
      <cc:Work
         rdf:about="">
        <dc:format>image/svg+xml</dc:format>
        <dc:type
           rdf:resource="http://purl.org/dc/dcmitype/StillImage" />
        <dc:title></dc:title>
      </cc:Work>
    </rdf:RDF>
  </metadata>
  <g
     inkscape:label="Layer 1"
     inkscape:groupmode="layer"
     id="layer1">
    <g
       id="g6203"
       transform="matrix(0.66540412,0,0,0.80826796,22.27733,40.010791)">
      <path
         inkscape:connector-curvature="0"
         d="m 56.319684,174.92665 c -1.179031,1.17571 -2.285942,2.41116 -3.513683,3.53941 -1.21811,1.07904 -2.391677,2.20803 -3.579598,3.32056 -0.984168,0.88675 -1.887868,1.8573 -2.865088,2.75218 -0.927732,0.90885 -1.800357,1.85901 -2.803099,2.68774 -1.124921,0.78735 -2.175042,1.66457 -3.242154,2.52479 -1.101722,0.75218 -2.115026,1.62648 -3.081456,2.54362 -0.963113,0.98331 -2.088592,1.76887 -3.153106,2.63102 -3.877977,3.11995 -8.823189,5.47762 -12.911262,7.84759 15.988686,-9.7662 9.535081,-5.90098 6.267119,-3.11125 -0.878411,0.89711 -1.897611,1.64038 -2.904988,2.38404 -0.948587,0.82843 -1.988007,1.54491 -3.012104,2.27537 -0.785843,0.84643 -1.653153,1.61397 -2.452024,2.45195 -0.781845,0.93716 -1.527421,1.90838 -2.392343,2.77098 -1.086607,0.79319 -1.989522,1.76554 -2.932303,2.7148 -0.156536,0.13168 -0.313072,0.26337 -0.469608,0.39505 0,0 -10.3279884,4.218 -10.3279884,4.218 v 0 c 0.1527765,-0.14832 0.305553,-0.29664 0.4583295,-0.44496 1.1252157,-0.74816 1.7232074,-2.0232 2.9495316,-2.64866 0.9159949,-0.7979 1.6782107,-1.69134 2.4606136,-2.61491 0.679084,-1.03607 1.6905317,-1.63402 2.3597167,-2.6541 0.896172,-0.89439 2.020915,-1.48465 3.016339,-2.26262 0.881271,-0.89389 1.994245,-1.4839 2.935543,-2.31463 3.246964,-3.74871 9.211032,-5.57796 12.70378,-8.16061 -16.498723,9.59257 -9.609967,5.72248 -6.059227,3.3484 1.000949,-0.95627 2.209637,-1.61716 3.145048,-2.64305 1.063374,-0.8208 1.938242,-1.85665 3.022799,-2.66042 1.207291,-0.66509 2.118362,-1.74235 3.26786,-2.50314 1.116494,-0.6751 1.932988,-1.59412 2.851783,-2.48834 0.88424,-1.02081 2.008917,-1.7988 2.859386,-2.86091 1.294606,-1.01467 2.423935,-2.2158 3.615984,-3.34935 1.286671,-0.97793 2.384724,-2.15582 3.413805,-3.39216 0,0 10.372394,-4.29639 10.372394,-4.29639 z"
         id="path4522"
         style="opacity:0.75;fill:#000000;fill-opacity:0.95477385;stroke-width:0.26458332" />
      <ellipse
         ry="25.556042"
         rx="17.334814"
         cy="212.47968"
         cx="0.70386267"
         id="path4526"
         style="opacity:0.75;fill:none;fill-opacity:0.95477385;stroke:#000018;stroke-width:11.06499958;stroke-miterlimit:4;stroke-dasharray:none;stroke-opacity:1" />
      <path
         inkscape:connector-curvature="0"
         d="m 44.283116,170.95963 c -0.916118,2.77474 -2.492155,5.03892 -3.995413,7.18113 -1.151089,1.66511 -2.463078,3.0718 -3.662002,4.65971 -0.847615,1.21966 -1.711247,2.41414 -2.64737,3.49206 -1.233802,1.22228 -2.461888,2.45578 -3.724746,3.61535 -1.119542,1.06418 -2.254295,2.10102 -3.295081,3.32329 -0.876371,1.06147 -1.747527,2.1348 -2.626499,3.19407 -3.616316,2.12384 -6.716864,6.01658 -10.264859,8.47583 -1.121035,0.77704 -2.28852,1.41899 -3.416816,2.17666 -2.9143792,1.71602 -7.7216931,5.97274 4.749735,-4.22183 1.221226,-0.99827 -1.252596,1.1303 -1.723739,1.66714 -1.051123,1.26518 -2.096148,2.53635 -3.104792,3.8721 -0.6173362,0.8811 -1.2172488,1.78774 -1.7570607,2.76883 0,0 -8.15575105,5.1228 -8.15575105,5.1228 v 0 c 0.47783825,-1.15578 1.11111445,-2.05294 1.72868035,-3.05356 0.9842525,-1.35539 1.9748463,-2.70794 3.063178,-3.89162 0.549937,-0.76905 1.0615059,-1.38263 1.7300278,-1.93619 3.5032066,-2.90078 6.6439176,-5.9559 10.2905436,-8.12995 3.393687,-2.19114 12.583696,-9.24926 -1.356349,1.9004 0.89439,-0.98554 1.744884,-2.08441 2.564282,-3.1878 1.113081,-1.1552 2.15119,-2.45699 3.341994,-3.465 1.238095,-1.15077 2.478302,-2.28926 3.67238,-3.53495 1.025055,-0.88161 1.872406,-2.10754 2.716268,-3.307 1.177801,-1.73377 2.572621,-3.08962 3.800154,-4.74823 1.457569,-1.96024 2.815825,-4.03152 3.970628,-6.38285 0,0 8.102607,-5.59039 8.102607,-5.59039 z"
         id="path4528"
         style="opacity:0.75;fill:none;fill-opacity:0.95477385;stroke:url(#linearGradient5992);stroke-width:1.59858596;stroke-miterlimit:4;stroke-dasharray:none;stroke-opacity:1" />
      <path
         inkscape:connector-curvature="0"
         id="path6004"
         d="m 52.856623,176.07687 14.3631,-12.09524 16.63095,-1.51191 26.458327,30.2381 z"
         style="fill:#000000;fill-opacity:0.95477385;stroke:#000000;stroke-width:0.26458332px;stroke-linecap:butt;stroke-linejoin:miter;stroke-opacity:1" />
      <path
         inkscape:connector-curvature="0"
         id="path6008"
         d="m 56.319684,174.92665 6.424364,42.69835 46.113092,-2.26786"
         style="fill:none;stroke:#000000;stroke-width:1.16499996;stroke-linecap:butt;stroke-linejoin:miter;stroke-miterlimit:4;stroke-dasharray:none;stroke-opacity:1" />
      <path
         inkscape:connector-curvature="0"
         id="path6010"
         d="m 110.309,192.70782 -1.45186,22.64932"
         style="fill:none;stroke:#000000;stroke-width:0.26458332px;stroke-linecap:butt;stroke-linejoin:miter;stroke-opacity:1" />
      <ellipse
         ry="25.290577"
         rx="27.414095"
         cy="213.85985"
         cx="158.90898"
         id="path6012"
         style="opacity:0.75;fill:none;fill-opacity:0.95477385;stroke:#000018;stroke-width:11.54745483;stroke-miterlimit:4;stroke-dasharray:none;stroke-opacity:1" />
      <ellipse
         ry="4.8905635"
         rx="25.883633"
         cy="188.53545"
         cx="129.42682"
         id="path6050"
         style="opacity:0.75;fill:url(#radialGradient6060);fill-opacity:1;stroke:#000018;stroke-width:0.4755154;stroke-miterlimit:4;stroke-dasharray:none;stroke-opacity:1" />
      <path
         inkscape:connector-curvature="0"
         id="path6062"
         d="m 108.85714,215.35714 c 54.91777,0.81421 50.21053,0.58158 50.21053,0.58158"
         style="fill:none;stroke:#000000;stroke-width:0.62538242;stroke-linecap:butt;stroke-linejoin:miter;stroke-miterlimit:4;stroke-dasharray:none;stroke-opacity:1" />
      <path
         inkscape:connector-curvature="0"
         id="path6064"
         d="M 160.69567,213.39944 110.32591,192.75665"
         style="fill:none;stroke:#000000;stroke-width:1.15402961;stroke-linecap:butt;stroke-linejoin:miter;stroke-miterlimit:4;stroke-dasharray:none;stroke-opacity:1" />
      <ellipse
         ry="6.4255939"
         rx="23.812498"
         cy="208.93155"
         cx="85.04464"
         id="path6048"
         style="opacity:0.75;fill:url(#linearGradient6076);fill-opacity:1;stroke:#000018;stroke-width:0.40000001;stroke-miterlimit:4;stroke-dasharray:none;stroke-opacity:1" />
      <rect
         y="179.10068"
         x="64.762871"
         height="27.970238"
         width="16.630953"
         id="rect6108"
         style="opacity:0.75;fill:#000000;fill-opacity:0.95477385;stroke:#000018;stroke-width:1.06500006;stroke-miterlimit:4;stroke-dasharray:none;stroke-opacity:1" />
      <ellipse
         ry="5.4806542"
         rx="6.0476193"
         cy="214.45671"
         cx="158.86667"
         id="path6116"
         style="opacity:0.75;fill:none;fill-opacity:0.04419891;stroke:#000018;stroke-width:0.565;stroke-miterlimit:4;stroke-dasharray:none;stroke-opacity:1" />
      <ellipse
         ry="1.2027128"
         rx="2.0713389"
         cy="214.54735"
         cx="158.82491"
         id="path6118"
         style="opacity:0.75;fill:none;fill-opacity:0.04419891;stroke:#000018;stroke-width:0.56499994;stroke-miterlimit:4;stroke-dasharray:none;stroke-opacity:1" />
      <path
         inkscape:connector-curvature="0"
         d="m 67.908777,188.20906 c -0.520785,0.48651 -0.80028,1.16319 -1.14051,1.77776 -0.331153,0.72232 -0.81175,1.34108 -1.284005,1.97165 -0.463565,0.64776 -0.804314,1.36972 -1.200967,2.0576 -0.368959,0.64069 -0.717016,1.29575 -1.031865,1.965 -0.333636,0.5776 -0.518877,1.21799 -0.803462,1.81953 -0.350401,0.67352 -0.435716,1.42087 -0.558729,2.15695 -0.176244,0.73696 -0.284049,1.48416 -0.342326,2.23883 -0.03788,0.73175 0.356219,1.33861 0.653804,1.97301 0.269145,0.57748 0.741611,0.99227 1.144834,1.46996 0.471241,0.47808 0.926174,0.97349 1.41732,1.43157 0.410715,0.44205 0.815586,0.89583 1.321109,1.23182 0.737426,0.48855 1.506567,0.94807 2.300737,1.33909 0.894009,0.45028 1.776188,0.91917 2.697383,1.31367 0.982982,0.47234 2.002792,0.87262 3.058435,1.14962 2.543542,0.60004 5.146071,0.9483 7.725484,1.36676 3.574639,0.58418 7.141554,1.22338 10.735035,1.6827 2.11114,0.27229 4.2129,0.61335 6.32417,0.8825 1.795026,0.22567 3.586616,0.43535 5.393796,0.53953 2.18495,0.11408 4.36432,0.30073 6.55109,0.39274 2.22068,0.13922 4.41899,0.10343 6.61287,-0.26877 2.10971,-0.41756 4.18689,-0.97112 6.26825,-1.50846 2.00339,-0.66232 3.99653,-1.35779 6.0146,-1.97479 1.63144,-0.56862 3.31636,-0.98279 4.93832,-1.57521 1.27486,-0.43557 2.58395,-0.77071 3.8863,-1.11626 1.91989,-0.41849 3.8763,-0.62602 5.81893,-0.90637 1.67836,-0.17139 3.32776,-0.5234 4.99699,-0.75644 1.24766,-0.2945 2.48769,-0.56935 3.76207,-0.71864 1.63903,-0.14517 3.27046,-0.35648 4.8983,-0.59376 1.27968,-0.19741 2.57122,-0.30303 3.86411,-0.35957 0.69892,-0.0258 1.39838,-0.0266 2.09767,-0.027 0,0 -4.49535,3.26647 -4.49535,3.26647 v 0 c -0.68575,2.6e-4 -1.37167,0.002 -2.05708,0.0264 -1.25675,0.053 -2.51045,0.15769 -3.75478,0.34662 -1.63632,0.23196 -3.27898,0.41226 -4.92037,0.60436 -1.2724,0.19437 -2.51128,0.53605 -3.78247,0.7366 -1.63533,0.22611 -3.26289,0.50611 -4.90433,0.68895 -1.95485,0.27201 -3.92238,0.50729 -5.83657,1.00392 -1.30191,0.36093 -2.60458,0.72473 -3.88458,1.15795 -1.62591,0.51016 -3.26088,0.99146 -4.88318,1.51347 -2.01296,0.62913 -4.00418,1.32544 -6.01959,1.94566 -2.08523,0.53162 -4.16867,1.07568 -6.28786,1.45868 -2.21402,0.31694 -4.43409,0.2988 -6.66539,0.17544 -2.19691,-0.10033 -4.38813,-0.285 -6.585246,-0.3776 -1.82417,-0.10702 -3.63601,-0.30778 -5.44674,-0.55174 -2.06474,-0.29123 -4.11707,-0.66856 -6.177237,-0.99034 -3.556431,-0.54744 -7.089537,-1.23485 -10.651257,-1.74961 -2.683378,-0.38871 -5.399297,-0.63459 -8.047747,-1.21767 -1.082191,-0.31055 -2.147617,-0.69412 -3.163649,-1.18138 -0.908862,-0.42885 -1.785916,-0.9161 -2.692464,-1.34826 -0.814718,-0.42641 -1.627684,-0.86799 -2.393087,-1.37822 -0.504447,-0.38185 -0.940385,-0.8329 -1.362604,-1.30302 -0.487267,-0.48525 -0.976196,-0.96713 -1.436053,-1.4788 -0.451429,-0.50803 -0.952526,-0.96374 -1.227814,-1.60283 -0.324702,-0.71845 -0.745763,-1.41037 -0.775711,-2.22242 0.04434,-0.7751 0.120629,-1.54915 0.312047,-2.30389 0.176472,-0.75589 0.1646,-1.55709 0.501383,-2.27531 0.276918,-0.61442 0.522385,-1.22553 0.769495,-1.84977 0.410406,-0.62664 0.659622,-1.35779 1.052965,-1.99858 0.431771,-0.67033 0.738555,-1.4071 1.174811,-2.07432 0.407628,-0.66789 1.026602,-1.18169 1.300832,-1.93615 0.371993,-0.61931 0.667705,-1.27065 1.033685,-1.89146 0,0 5.186198,-2.1482 5.186198,-2.1482 z"
         id="path6168"
         style="opacity:0.75;fill:none;fill-opacity:0.04419891;stroke:#003142;stroke-width:2.66499996;stroke-miterlimit:4;stroke-dasharray:none;stroke-opacity:0.69060771" />
      <rect
         y="191.92262"
         x="83.154755"
         height="1.8898809"
         width="6.0476193"
         id="rect6170"
         style="opacity:0.75;fill:none;fill-opacity:0.04419891;stroke:#003142;stroke-width:2.66499996;stroke-miterlimit:4;stroke-dasharray:none;stroke-opacity:0.69060771" />
      <rect
         y="189.08781"
         x="84.13485"
         height="7.6188698"
         width="6.4849429"
         id="rect6172"
         style="opacity:0.75;fill:#1e201b;fill-opacity:0.65193374;stroke:#003142;stroke-width:3.70565343;stroke-miterlimit:4;stroke-dasharray:none;stroke-opacity:0.69060771" />
      <ellipse
         ry="7.1815472"
         rx="6.7563248"
         cy="203.82887"
         cx="118.2593"
         id="path6174"
         style="opacity:0.75;fill:#1e201b;fill-opacity:0.65193374;stroke:#003142;stroke-width:3.76499987;stroke-miterlimit:4;stroke-dasharray:none;stroke-opacity:0.69060771" />
      <path
         inkscape:connector-curvature="0"
         d="m 139.4739,188.18137 c 1.50831,-1.05157 2.99269,-2.13618 4.51985,-3.16082 0.80876,-0.55876 1.62979,-1.10469 2.3751,-1.74777 0.46071,-0.33237 0.91912,-0.66607 1.37709,-1.00253 2.19837,-1.49792 4.61533,-2.73866 6.90751,-4.03856 0.74597,-0.55428 1.62447,-0.66161 2.52317,-0.72781 1.56098,-0.0528 3.12338,-0.036 4.68495,-0.0271 1.58468,0.003 3.16378,-0.0592 4.74111,0.10934 0.99878,0.1787 1.87705,0.663 2.7634,1.12808 1.51886,0.70396 3.12163,1.24589 4.73088,1.70802 1.01974,0.23483 1.79232,0.91 2.63638,1.47206 0.57328,0.51713 1.2486,0.89657 1.83742,1.39278 0.552,0.37803 0.95652,0.92702 1.34755,1.46092 0.46367,0.49748 0.94799,0.97437 1.39287,1.48862 0.49285,0.55195 1.00799,1.08208 1.455,1.67495 0.39691,0.56992 0.92319,0.99253 1.43746,1.44435 0.48821,0.32307 1.04545,0.5773 1.6053,0.75724 0.5698,0.36625 1.16402,0.70874 1.71046,1.11063 0.53374,0.43052 1.21131,0.4447 1.83887,0.62672 0.81289,0.19171 1.60966,0.42921 2.43457,0.56909 0.63494,0.0859 1.32339,0.0264 1.9236,-0.20242 0,0 -4.41901,3.38309 -4.41901,3.38309 v 0 c -0.68169,0.0984 -1.36849,0.15517 -2.04686,-0.008 -0.82942,-0.17263 -1.64824,-0.39159 -2.47329,-0.58365 -0.70208,-0.15106 -1.38304,-0.3329 -1.95474,-0.79515 -0.5267,-0.35587 -1.06682,-0.71092 -1.64199,-0.9813 -0.59846,-0.24761 -1.21034,-0.50712 -1.70684,-0.93131 -0.54807,-0.46992 -1.06258,-0.95592 -1.48176,-1.54963 -0.44781,-0.57696 -0.97187,-1.08618 -1.44903,-1.63781 -0.45812,-0.52445 -0.96604,-0.99915 -1.42343,-1.52305 -0.36919,-0.49925 -0.75596,-0.98757 -1.26882,-1.34861 -0.58557,-0.47364 -1.22365,-0.87675 -1.80164,-1.3603 -0.76959,-0.55625 -1.5095,-1.1436 -2.44959,-1.39224 -1.62108,-0.53436 -3.24722,-1.07878 -4.8134,-1.75769 -0.85673,-0.39768 -1.72156,-0.81131 -2.66253,-0.9626 -1.53709,-0.16281 -3.08337,-0.10591 -4.6269,-0.11998 -1.58235,0.0106 -3.17046,-0.007 -4.7467,0.14955 -0.87683,0.13733 -1.6638,0.41291 -2.4188,0.88812 8.12932,-4.72409 4.43514,-2.60256 2.60183,-1.48017 -0.45296,0.35063 -0.88654,0.72293 -1.39401,0.98934 -0.82723,0.62528 -1.60536,1.31803 -2.50068,1.857 -1.51229,0.96193 -2.96513,2.01106 -4.39704,3.08804 0,0 -5.16731,2.04107 -5.16731,2.04107 z"
         id="path6176"
         style="opacity:0.75;fill:#1e201b;fill-opacity:0.65193374;stroke:#003142;stroke-width:3.76499987;stroke-miterlimit:4;stroke-dasharray:none;stroke-opacity:0.69060771" />
      <path
         inkscape:connector-curvature="0"
         d="m 36.507675,135.57321 c 1.534703,-0.4924 3.139832,-0.73482 4.709446,-1.10366 2.132621,-0.45418 4.221279,-1.17294 6.386237,-1.4597 1.151456,0.0131 1.965005,0.68775 2.671376,1.52342 0.393563,0.59596 0.598951,1.3004 0.801521,1.98135 0.184237,0.69397 0.211246,1.4139 0.232312,2.12755 0.01304,0.77034 0.015,1.54097 0.0029,2.31133 -0.0071,0.85296 -0.0026,1.70595 -5.29e-4,2.55892 0.04415,0.89461 -0.09193,1.77466 -0.213032,2.65714 -0.142282,0.82243 -0.454927,1.60792 -0.762463,2.38085 -0.264075,0.6796 -0.420026,1.392 -0.637074,2.08718 -0.198078,0.62666 -0.536073,1.19427 -0.796909,1.79573 -0.314553,0.71172 -0.496189,1.4646 -0.802405,2.18039 -0.288986,0.7498 -0.529235,1.51591 -0.827463,2.26274 -0.304898,0.69191 -0.377299,1.43968 -0.484526,2.17804 -0.167445,0.6397 -0.279586,1.28626 -0.337527,1.94448 -0.05031,0.73447 -0.05006,1.47114 -0.05213,2.20696 0.06712,0.60032 0.187058,1.19334 0.385644,1.76364 0.302778,0.52666 0.615542,1.08203 1.001839,1.55684 0.417311,0.53378 0.851162,1.04945 1.284454,1.57033 0.430774,0.43099 0.916705,0.76446 1.448636,1.05737 0.735986,0.36494 1.546355,0.47155 2.354871,0.53196 0.470469,0.0289 0.962435,0.0622 1.410327,-0.12385 0.08858,-0.0368 0.326761,-0.20093 0.243174,-0.15387 -1.51406,0.85243 -3.023275,1.71344 -4.534911,2.57015 0.562546,-0.31569 1.032364,-0.74821 1.468453,-1.21735 0.484939,-0.50463 0.994376,-0.98336 1.477809,-1.48953 0.64275,-0.51006 1.184307,-1.11925 1.743255,-1.71527 0.54061,-0.51432 0.999977,-1.1032 1.45877,-1.68924 0.536284,-0.52821 1.038074,-1.07607 1.481508,-1.68505 0.477239,-0.67779 0.99164,-1.32341 1.541764,-1.94325 0.695187,-0.70001 1.315093,-1.46507 1.947439,-2.22052 0.574278,-0.6513 1.105318,-1.33883 1.661411,-2.00528 0.526865,-0.58816 1.039908,-1.18587 1.609844,-1.73335 0.428104,-0.47434 0.831924,-0.97145 1.233938,-1.46814 0.397851,-0.42378 0.796419,-0.84145 1.134787,-1.3156 0.373417,-0.45591 0.625163,-0.99173 0.978691,-1.46204 0.387908,-0.51113 0.799097,-1.0091 1.256221,-1.46077 0.421124,-0.44172 0.907211,-0.81631 1.266002,-1.31279 0.317973,-0.45674 0.685289,-0.87202 1.040714,-1.29875 0.468601,-0.56347 1.00402,-1.05784 1.449015,-1.64166 0.424582,-0.62064 1.050935,-1.04645 1.548132,-1.59981 0.481024,-0.4683 0.99246,-0.90483 1.520241,-1.32022 0.62126,-0.48107 1.288007,-0.9007 1.945296,-1.33038 1.919015,-1.27087 3.900762,-2.35 5.937895,-3.48821 0.19767,-0.11044 0.431054,-0.14091 0.638919,-0.23071 0.847185,-0.35978 1.305361,-0.21843 2.033071,0.26852 0.582367,0.46276 0.809768,1.13067 1.094857,1.78369 0.18135,0.56383 0.443439,1.07339 0.757457,1.5712 0.355864,0.60557 0.594664,1.24856 0.743013,1.93279 0.156369,0.72533 0.09573,1.47236 0.188511,2.20309 0.0195,0.10085 0.03903,0.20169 0.05854,0.30253 0,0 -4.9163,2.62912 -4.9163,2.62912 v 0 c -0.02291,-0.11017 -0.04583,-0.22034 -0.06874,-0.33051 -0.117036,-0.72037 -0.0399,-1.45753 -0.168344,-2.17908 -0.11793,-0.62645 -0.330348,-1.19999 -0.665615,-1.74504 -0.328917,-0.52277 -0.601985,-1.06141 -0.787056,-1.65337 -0.237162,-0.55341 -0.392676,-1.13363 -0.928404,-1.48628 -0.5862,-0.32567 -1.130284,-0.11378 -1.713164,0.15103 -1.754076,0.7018 -4.250298,2.37355 3.86638,-2.33112 0.639966,-0.37094 -1.41219,0.9644 -0.894215,0.57389 -0.645459,0.44807 -1.308327,0.85874 -1.966714,1.28755 -0.509535,0.42133 -1.021424,0.83507 -1.531083,1.24777 -0.769096,0.75203 0.333523,-0.34819 -0.458065,0.52227 -0.342686,0.37683 -0.829733,0.59833 -1.135221,1.0182 -0.425482,0.59932 -0.872951,1.15869 -1.413915,1.6555 -0.345924,0.43729 -0.734055,0.82734 -1.037995,1.29193 -0.457517,0.52006 0.09549,-0.13791 -0.337743,0.48447 -0.241464,0.34689 -0.632505,0.58662 -0.927515,0.88232 -0.418042,0.46318 -0.875176,0.8922 -1.269498,1.37542 -0.327763,0.49885 -0.714129,0.95263 -0.973997,1.4977 -0.270661,0.30129 -0.445103,0.67213 -0.729197,0.96408 -0.06136,0.0631 -0.144198,0.10264 -0.20505,0.16618 -0.06605,0.069 -0.115244,0.1523 -0.172865,0.22845 -0.489289,0.42614 -0.851061,0.99084 -1.260949,1.49104 -0.542361,0.56684 -1.144965,1.07628 -1.61073,1.71769 -0.640077,0.59503 -1.098135,1.36087 -1.703935,1.9904 -0.641956,0.74851 -1.227185,1.54463 -1.934954,2.23428 -0.550436,0.59851 -1.096666,1.20578 -1.529646,1.89756 -0.485714,0.56956 -0.844986,1.24878 -1.455086,1.71074 -0.542542,0.53232 -0.921367,1.20634 -1.471155,1.73673 -0.60846,0.53968 -1.047237,1.24143 -1.715095,1.71905 -0.540028,0.4385 -0.945021,1.02223 -1.502556,1.44449 -0.42795,0.4923 -0.838893,1.00425 -1.396174,1.35394 -3.1271,1.79283 -3.983919,3.26092 -6.843835,2.94496 -0.861734,-0.10975 -1.710309,-0.29764 -2.482003,-0.7145 -0.594831,-0.32518 -1.128821,-0.72253 -1.583446,-1.22963 -0.418846,-0.53525 -0.869133,-1.03874 -1.28183,-1.57895 -0.41134,-0.53615 -0.774808,-1.12331 -1.104122,-1.71029 -0.222602,-0.63024 -0.357304,-1.27915 -0.453448,-1.94125 -1.14e-4,-0.74625 -0.0027,-1.49288 0.02821,-2.23864 0.03797,-0.67825 0.0959,-1.35892 0.300707,-2.01087 0.21205,-0.74022 0.140494,-1.55049 0.462457,-2.27025 0.291844,-0.75393 0.594165,-1.50087 0.821084,-2.27806 0.307835,-0.71861 0.562102,-1.43466 0.785641,-2.18387 0.269457,-0.57687 0.486241,-1.1746 0.820351,-1.7206 0.195313,-0.72345 0.448596,-1.42636 0.641863,-2.15102 0.302967,-0.74265 0.577583,-1.48853 0.817608,-2.25509 0.116612,-0.86083 0.314328,-1.71405 0.24289,-2.5883 0.003,-0.85404 0.009,-1.7081 0.0052,-2.56215 -0.0094,-0.76333 0.0013,-1.52673 -0.01082,-2.29006 -0.01479,-0.66779 -0.02788,-1.34193 -0.179626,-1.99571 -0.167947,-0.61015 -0.341418,-1.24447 -0.665273,-1.78861 -0.605526,-0.71709 -1.277324,-1.21018 -2.266971,-1.12566 -2.114228,0.32588 -4.174059,0.94207 -6.256055,1.42211 -1.657572,0.39387 -3.332771,0.72931 -4.943932,1.29159 0,0 4.460488,-3.41074 4.460488,-3.41074 z"
         id="path6178"
         style="opacity:0.75;fill:#1e201b;fill-opacity:0.65193374;stroke:#003142;stroke-width:0;stroke-miterlimit:4;stroke-dasharray:none;stroke-opacity:0.69060771" />
      <ellipse
         ry="5.5103097"
         rx="1.4988538"
         cy="211.3622"
         cx="1.4471447"
         id="path6180"
         style="opacity:0.75;fill:#1e201b;fill-opacity:0.65193374;stroke:#003142;stroke-width:3.76499987;stroke-miterlimit:4;stroke-dasharray:none;stroke-opacity:0.69060771" />
    </g>
  </g>
</svg>
